<?xml version="1.0" standalone="no"?>
<!DOCTYPE svg PUBLIC "-//W3C//DTD SVG 20010904//EN"
 "http://www.w3.org/TR/2001/REC-SVG-20010904/DTD/svg10.dtd">
<svg version="1.0" xmlns="http://www.w3.org/2000/svg"
 width="204.000000pt" height="204.000000pt" viewBox="0 0 204.000000 204.000000"
 preserveAspectRatio="xMidYMid meet">
<metadata>
Created by potrace 1.14, written by Peter Selinger 2001-2017
</metadata>
<g transform="translate(0.000000,204.000000) scale(0.100000,-0.100000)"
fill="#000000" stroke="none">
<path d="M953 1630 c-18 -4 -39 -12 -45 -18 -7 -6 -15 -10 -18 -10 -13 2 -80
-27 -80 -34 0 -4 -7 -8 -15 -8 -8 0 -15 -5 -15 -11 0 -6 -17 -27 -37 -45 -21
-20 -31 -34 -22 -34 12 0 12 -2 0 -9 -8 -6 -12 -19 -9 -35 3 -15 2 -29 -2 -31
-8 -5 2 -65 19 -122 7 -26 6 -36 -5 -48 -16 -16 -12 -61 9 -100 6 -11 10 -23
9 -27 -1 -4 14 -19 32 -35 34 -27 59 -83 38 -83 -6 0 -17 -6 -24 -12 -45 -43
-109 -88 -125 -88 -10 0 -43 -6 -73 -14 -30 -8 -68 -16 -85 -19 -94 -16 -221
-86 -232 -128 -3 -10 -10 -19 -15 -19 -5 0 -22 -13 -38 -28 l-28 -29 32 -60
c42 -77 120 -176 182 -228 26 -22 52 -45 59 -52 21 -20 138 -88 192 -111 44
-19 97 -35 188 -58 11 -3 72 -7 135 -9 255 -9 470 73 651 247 77 74 114 121
159 201 32 58 32 58 13 80 -10 12 -29 38 -42 57 -16 24 -44 45 -90 66 -86 41
-168 72 -206 78 -16 2 -50 9 -75 15 -25 6 -56 13 -70 16 -14 3 -44 22 -68 43
l-42 38 13 59 c9 38 19 60 27 60 8 0 23 22 33 50 20 55 16 112 -10 122 -12 5
-14 16 -8 62 12 93 8 117 -25 161 -39 50 -62 70 -108 94 -18 9 -34 16 -37 16
-3 0 -14 9 -25 20 -12 12 -25 18 -30 15 -4 -3 -19 -1 -32 3 -12 5 -38 5 -55 2z"/>
</g>
</svg>
